<svg width="32" height="32" viewBox="0 0 32 32" fill="none" xmlns="http://www.w3.org/2000/svg">
<path fill-rule="evenodd" clip-rule="evenodd" d="M24.0582 9.1838C24.0582 6.88057 22.0735 5 19.608 5C18.3074 5 17.1005 5.5273 16.261 6.42804L15.7641 6.96118L15.1535 6.5589C14.4122 6.0706 13.5308 5.80449 12.6042 5.80449C10.1844 5.80449 8.22027 7.61971 8.15647 9.87536L8.13039 10.7976L7.20065 10.691L6.88692 10.6583L6.63543 10.6388L6.44868 10.6324C3.98443 10.6324 2 12.5131 2 14.816C2 15.7861 2.35195 16.6811 2.94349 17.3923C3.341 17.2049 3.7724 17.0745 4.22626 17.0119L4.356 16.996C5.67653 15.4842 7.57523 14.5843 9.61582 14.5056L9.90825 14.5C11.5838 14.5 13.1851 15.0524 14.4709 16.0583L14.703 16.248L14.9711 16.2171C15.0682 16.2079 15.1656 16.201 15.2633 16.1963L15.5571 16.1894C17.7254 16.1894 19.6315 17.314 20.6695 19H25.5516C28.0158 19 30 17.1193 30 14.816C30 12.5131 28.0157 10.6324 25.5516 10.6324C25.3579 10.6324 25.1657 10.6439 24.975 10.6668L23.8785 10.7982L24.0216 9.71872C24.0458 9.53575 24.0582 9.35755 24.0582 9.1838Z" fill="white"/>
<path d="M16.261 6.42804L16.517 6.66667L16.517 6.66667L16.261 6.42804ZM15.7641 6.96118L15.5716 7.25346L15.8185 7.41614L16.0201 7.19981L15.7641 6.96118ZM15.1535 6.5589L15.346 6.26662L15.346 6.26662L15.1535 6.5589ZM8.15647 9.87536L8.50633 9.88525L8.50633 9.88525L8.15647 9.87536ZM8.13039 10.7976L8.09053 11.1453L8.46946 11.1887L8.48025 10.8074L8.13039 10.7976ZM7.20065 10.691L7.24051 10.3432L7.23697 10.3429L7.20065 10.691ZM6.88692 10.6583L6.92324 10.31L6.91392 10.3093L6.88692 10.6583ZM6.63543 10.6388L6.66243 10.2898L6.65494 10.2893L6.64743 10.289L6.63543 10.6388ZM6.44868 10.6324L6.46068 10.2824H6.44868V10.6324ZM2.94349 17.3923L2.6744 17.6161L2.84766 17.8244L3.09273 17.7089L2.94349 17.3923ZM4.22626 17.0119L4.18358 16.6645L4.17847 16.6652L4.22626 17.0119ZM4.356 16.996L4.39868 17.3434L4.53154 17.3271L4.6196 17.2262L4.356 16.996ZM9.61582 14.5056L9.60908 14.1556L9.60233 14.1559L9.61582 14.5056ZM9.90825 14.5V14.1499L9.90151 14.1501L9.90825 14.5ZM14.4709 16.0583L14.6924 15.7872L14.6865 15.7827L14.4709 16.0583ZM14.703 16.248L14.4815 16.519L14.5961 16.6126L14.7431 16.5957L14.703 16.248ZM14.9711 16.2171L14.938 15.8686L14.931 15.8694L14.9711 16.2171ZM15.2633 16.1963L15.2551 15.8463L15.2468 15.8467L15.2633 16.1963ZM15.5571 16.1894V15.8393L15.5489 15.8395L15.5571 16.1894ZM20.6695 19L20.3714 19.1835L20.4739 19.35H20.6695V19ZM24.975 10.6668L25.0167 11.0143L25.0167 11.0143L24.975 10.6668ZM23.8785 10.7982L23.5316 10.7523L23.4723 11.1995L23.9202 11.1458L23.8785 10.7982ZM24.0216 9.71872L24.3686 9.7647L24.3686 9.7647L24.0216 9.71872ZM19.608 5.35C21.9 5.35 23.7082 7.09314 23.7082 9.1838H24.4082C24.4082 6.66801 22.2469 4.65 19.608 4.65V5.35ZM16.517 6.66667C17.2887 5.83871 18.4021 5.35 19.608 5.35V4.65C18.2128 4.65 16.9123 5.21589 16.0049 6.18942L16.517 6.66667ZM16.0201 7.19981L16.517 6.66667L16.0049 6.18942L15.5081 6.72255L16.0201 7.19981ZM14.9609 6.85118L15.5716 7.25346L15.9566 6.6689L15.346 6.26662L14.9609 6.85118ZM12.6042 6.15449C13.4634 6.15449 14.2777 6.40109 14.9609 6.85118L15.346 6.26662C14.5467 5.7401 13.5982 5.45449 12.6042 5.45449V6.15449ZM8.50633 9.88525C8.56426 7.8373 10.3549 6.15449 12.6042 6.15449V5.45449C10.0138 5.45449 7.87629 7.40213 7.80661 9.86546L8.50633 9.88525ZM8.48025 10.8074L8.50633 9.88525L7.80661 9.86546L7.78053 10.7877L8.48025 10.8074ZM7.1608 11.0387L8.09053 11.1453L8.17024 10.4498L7.24051 10.3433L7.1608 11.0387ZM6.85061 11.0064L7.16434 11.0391L7.23697 10.3429L6.92323 10.3102L6.85061 11.0064ZM6.60843 10.9878L6.85992 11.0072L6.91392 10.3093L6.66243 10.2898L6.60843 10.9878ZM6.43668 10.9822L6.62343 10.9886L6.64743 10.289L6.46067 10.2826L6.43668 10.9822ZM2.35 14.816C2.35 12.7256 4.15798 10.9824 6.44868 10.9824V10.2824C3.81089 10.2824 1.65 12.3007 1.65 14.816H2.35ZM3.21258 17.1685C2.67002 16.5162 2.35 15.6993 2.35 14.816H1.65C1.65 15.8728 2.03388 16.8461 2.6744 17.6161L3.21258 17.1685ZM4.17847 16.6652C3.68904 16.7327 3.22348 16.8734 2.79425 17.0757L3.09273 17.7089C3.45852 17.5365 3.85575 17.4163 4.27406 17.3587L4.17847 16.6652ZM4.31332 16.6486L4.18359 16.6645L4.26894 17.3593L4.39868 17.3434L4.31332 16.6486ZM9.60233 14.1559C7.46721 14.2382 5.47743 15.1801 4.0924 16.7658L4.6196 17.2262C5.87563 15.7883 7.68326 14.9304 9.62931 14.8554L9.60233 14.1559ZM9.90151 14.1501L9.60908 14.1557L9.62256 14.8556L9.91499 14.8499L9.90151 14.1501ZM14.6865 15.7827C13.3384 14.7279 11.661 14.15 9.90825 14.15V14.85C11.5067 14.85 13.0317 15.3768 14.2552 16.334L14.6865 15.7827ZM14.9245 15.977L14.6923 15.7873L14.2494 16.3293L14.4815 16.519L14.9245 15.977ZM14.931 15.8694L14.6629 15.9003L14.7431 16.5957L15.0112 16.5648L14.931 15.8694ZM15.2468 15.8467C15.1436 15.8516 15.0407 15.8589 14.938 15.8687L15.0041 16.5655C15.0957 16.5568 15.1877 16.5503 15.2799 16.5459L15.2468 15.8467ZM15.5489 15.8395L15.2551 15.8464L15.2716 16.5462L15.5654 16.5393L15.5489 15.8395ZM20.9675 18.8165C19.8662 17.0278 17.8478 15.8394 15.5571 15.8394V16.5394C17.6031 16.5394 19.3967 17.6003 20.3714 19.1835L20.9675 18.8165ZM25.5516 18.65H20.6695V19.35H25.5516V18.65ZM29.65 14.816C29.65 16.9069 27.8422 18.65 25.5516 18.65V19.35C28.1894 19.35 30.35 17.3318 30.35 14.816H29.65ZM25.5516 10.9824C27.8421 10.9824 29.65 12.7255 29.65 14.816H30.35C30.35 12.3006 28.1893 10.2824 25.5516 10.2824V10.9824ZM25.0167 11.0143C25.1935 10.9931 25.3718 10.9824 25.5516 10.9824V10.2824C25.344 10.2824 25.1378 10.2948 24.9334 10.3193L25.0167 11.0143ZM23.9202 11.1458L25.0167 11.0143L24.9334 10.3193L23.8369 10.4507L23.9202 11.1458ZM23.6746 9.67275L23.5316 10.7523L24.2255 10.8442L24.3686 9.7647L23.6746 9.67275ZM23.7082 9.1838C23.7082 9.34092 23.697 9.50372 23.6746 9.67275L24.3686 9.7647C24.3946 9.56779 24.4082 9.37419 24.4082 9.1838H23.7082Z" fill="#505F79"/>
<path d="M9.90825 16C11.4275 16 12.8501 16.5645 13.9169 17.5556L14.2407 17.8564L14.6753 17.773C14.9637 17.7176 15.2584 17.6894 15.5571 17.6894C18.0179 17.6894 20 19.595 20 21.9297C20 24.2644 18.0178 26.1701 15.5571 26.1701C15.0179 26.1701 14.4927 26.0783 13.9985 25.9016L13.5828 25.753L13.2169 25.9994C12.2556 26.647 11.1109 27 9.90825 27C7.82343 27 5.93791 25.9318 4.91857 24.2391L4.71415 23.8997L4.32307 23.8309C2.98064 23.595 2 22.4757 2 21.1729C2 19.7353 3.18869 18.5411 4.70679 18.4728L5.10016 18.4551L5.34668 18.1489C6.42926 16.8045 8.0971 16 9.90825 16Z" fill="white" stroke="#505F79" stroke-width="0.7"/>
</svg>
