<svg width="32" height="32" viewBox="0 0 32 32" fill="none" xmlns="http://www.w3.org/2000/svg">
<path fill-rule="evenodd" clip-rule="evenodd" d="M17.2615 4C17.4616 4 17.6279 4.14414 17.6624 4.33423L17.669 4.40747V5.05364L18.1259 4.59673C18.285 4.4376 18.543 4.4376 18.7022 4.59673C18.8436 4.73818 18.8593 4.95774 18.7493 5.11655L18.7022 5.17298L18.2452 5.62989H18.8914C19.1165 5.62989 19.2989 5.81232 19.2989 6.03736C19.2989 6.2374 19.1547 6.40377 18.9647 6.43827L18.8914 6.44483H18.2452L18.7021 6.90174C18.8613 7.06087 18.8613 7.31887 18.7021 7.47799C18.5607 7.61944 18.3411 7.63516 18.1823 7.52514L18.1259 7.47799L17.669 7.0211V7.66725C17.669 7.89229 17.4866 8.07472 17.2615 8.07472C17.0615 8.07472 16.8951 7.93058 16.8606 7.74049L16.8541 7.66725V7.02109L16.3971 7.47799C16.238 7.63712 15.98 7.63712 15.8209 7.47799C15.6794 7.33655 15.6637 7.11698 15.7737 6.95817L15.8209 6.90174L16.2778 6.44483H15.6316C15.4066 6.44483 15.2242 6.2624 15.2242 6.03736C15.2242 5.83732 15.3683 5.67095 15.5584 5.63645L15.6316 5.62989H16.2778L15.8209 5.17298C15.6618 5.01386 15.6618 4.75586 15.8209 4.59673C15.9623 4.45528 16.1819 4.43957 16.3407 4.54958L16.3971 4.59673L16.8541 5.05365V4.40747C16.8541 4.18243 17.0365 4 17.2615 4ZM8.29714 23.1512C8.49717 23.1512 8.66354 23.2953 8.69804 23.4854L8.70461 23.5587V24.2048L9.16151 23.7479C9.32064 23.5888 9.57864 23.5888 9.73777 23.7479C9.87921 23.8894 9.89493 24.1089 9.78492 24.2677L9.73777 24.3242L9.28086 24.7811H9.92703C10.1521 24.7811 10.3345 24.9635 10.3345 25.1885C10.3345 25.3886 10.1904 25.555 10.0003 25.5895L9.92703 25.596H9.28085L9.73776 26.0529C9.89689 26.2121 9.89689 26.4701 9.73776 26.6292C9.59631 26.7706 9.37675 26.7863 9.21794 26.6763L9.16151 26.6292L8.70461 26.1723V26.8184C8.70461 27.0435 8.52218 27.2259 8.29714 27.2259C8.0971 27.2259 7.93073 27.0818 7.89623 26.8917L7.88966 26.8184V26.1723L7.43276 26.6292C7.27363 26.7883 7.01563 26.7883 6.8565 26.6292C6.71506 26.4877 6.69934 26.2682 6.80936 26.1094L6.8565 26.0529L7.31341 25.596H6.66725C6.44221 25.596 6.25978 25.4136 6.25978 25.1885C6.25978 24.9885 6.40392 24.8221 6.59401 24.7876L6.66725 24.7811H7.3134L6.8565 24.3242C6.69737 24.165 6.69737 23.907 6.8565 23.7479C6.99794 23.6065 7.21751 23.5908 7.37631 23.7008L7.43275 23.7479L7.88966 24.2048V23.5587C7.88966 23.3336 8.0721 23.1512 8.29714 23.1512ZM8.18888 6.03736C8.46433 6.03736 8.69136 6.24471 8.72238 6.51184L8.726 6.57448V7.31625L9.02291 7.16831C9.28824 7.03565 9.61087 7.14319 9.74354 7.40852C9.86672 7.65489 9.78279 7.95068 9.55774 8.09789L9.50333 8.12914L8.726 8.51779V9.75424L9.82144 10.3827L10.8888 9.7662L10.8369 8.8991C10.8191 8.60299 11.0448 8.34854 11.3409 8.33077C11.6159 8.31426 11.8549 8.50764 11.9019 8.77243L11.9092 8.83474L11.9293 9.16543L12.572 8.79496C12.8289 8.64664 13.1574 8.73466 13.3057 8.99156C13.4434 9.23011 13.3773 9.5304 13.1615 9.69083L13.1091 9.72528L12.466 10.096L12.7433 10.2793C12.9908 10.4428 13.059 10.776 12.8956 11.0235C12.7438 11.2534 12.4457 11.3286 12.2056 11.2073L12.1514 11.1758L11.4259 10.6965L10.3551 11.3147L10.3586 12.5784L11.4264 13.1942L12.1514 12.7157C12.3989 12.5523 12.7321 12.6204 12.8955 12.868C13.0473 13.0979 12.9994 13.4016 12.7935 13.5746L12.7433 13.6122L12.4669 13.7949L13.1091 14.1662C13.366 14.3145 13.454 14.643 13.3057 14.8999C13.1679 15.1385 12.8749 15.2314 12.628 15.1247L12.5719 15.0965L11.9293 14.725L11.9092 15.0568C11.8914 15.3529 11.637 15.5785 11.3409 15.5607C11.0659 15.5442 10.8517 15.3237 10.8368 15.0551L10.8369 14.9924L10.8892 14.1245L9.81844 13.5063L8.72571 14.1409L8.72597 15.3737L9.5033 15.7623C9.76863 15.895 9.87617 16.2176 9.74351 16.483C9.62032 16.7293 9.33333 16.8397 9.08053 16.748L9.02289 16.7232L8.72597 16.5752V17.317C8.72597 17.6136 8.48549 17.8541 8.18885 17.8541C7.9134 17.8541 7.68637 17.6468 7.65534 17.3796L7.65173 17.317V16.5752L7.35482 16.7232C7.08949 16.8558 6.76686 16.7483 6.63419 16.483C6.511 16.2366 6.59494 15.9408 6.81999 15.7936L6.8744 15.7623L7.65173 15.3737V14.1372L6.55628 13.5087L5.48876 14.1249L5.54081 14.9924C5.55858 15.2885 5.33295 15.5429 5.03684 15.5607C4.76188 15.5772 4.52283 15.3838 4.47586 15.1191L4.4685 15.0567L4.44819 14.7257L3.80577 15.0965C3.54887 15.2448 3.22037 15.1568 3.07205 14.8999C2.93432 14.6614 3.00038 14.3611 3.21621 14.2006L3.26865 14.1662L3.91107 13.7954L3.63446 13.6121C3.38691 13.4487 3.31873 13.1155 3.48218 12.868C3.63395 12.6381 3.93208 12.5629 4.17209 12.6842L4.22636 12.7157L4.95164 13.1946L6.02244 12.5764L6.01862 11.313L4.95159 10.697L4.22637 11.1758C3.97882 11.3392 3.64564 11.271 3.48219 11.0235C3.33042 10.7936 3.37836 10.4899 3.58419 10.3168L3.63448 10.2793L3.91103 10.0962L3.26866 9.72526C3.01176 9.57694 2.92374 9.24844 3.07206 8.99154C3.20979 8.75299 3.50287 8.66005 3.74973 8.76675L3.80578 8.79494L4.44815 9.16588L4.46851 8.83472C4.48628 8.53861 4.74074 8.31297 5.03685 8.33074C5.31181 8.34725 5.526 8.56783 5.54097 8.83634L5.54082 8.89908L5.48871 9.76665L6.55951 10.3849L7.65147 9.74994L7.65176 8.51779L6.87443 8.12914C6.6091 7.99648 6.50156 7.67384 6.63422 7.40852C6.75741 7.16214 7.04439 7.05181 7.2972 7.14353L7.35484 7.16831L7.65176 7.31625V6.57448C7.65176 6.27784 7.89223 6.03736 8.18888 6.03736ZM8.18484 10.6824L7.09288 11.3173L7.09664 12.5806L8.19236 13.2085L9.28433 12.5736L9.28057 11.3103L8.18484 10.6824ZM23.9914 8.13596C22.5546 7.83372 21.1243 8.67697 20.6894 10.0827C20.582 10.4299 20.7757 10.7986 21.1221 10.9063C21.4685 11.014 21.8363 10.8198 21.9437 10.4726C22.1779 9.71566 22.948 9.2616 23.7217 9.42435C24.4954 9.5871 25.0185 10.3132 24.9294 11.1006C24.8402 11.888 24.1681 12.4782 23.3777 12.463L15.9236 12.4629L15.8471 12.4673C15.5205 12.5054 15.267 12.7836 15.267 13.1211C15.267 13.4847 15.561 13.7794 15.9236 13.7794L23.501 13.7787C24.8974 13.7385 26.0739 12.6657 26.2342 11.249C26.3997 9.78671 25.4282 8.43821 23.9914 8.13596ZM15.8026 15.9734L26.1001 15.9735C27.5679 15.9454 28.8162 17.0414 28.9817 18.5037C29.1472 19.9661 28.1757 21.3146 26.7389 21.6168C25.302 21.9191 23.8717 21.0758 23.4369 19.6701C23.3295 19.3229 23.5232 18.9542 23.8696 18.8465C24.2159 18.7388 24.5838 18.933 24.6912 19.2802C24.9253 20.0371 25.6955 20.4912 26.4692 20.3284C27.2428 20.1657 27.766 19.4396 27.6768 18.6522C27.5918 17.9005 26.9755 17.3287 26.2213 17.2915L26.1127 17.2899H15.8026C15.4399 17.2899 15.146 16.9952 15.146 16.6317C15.146 16.2941 15.3995 16.0159 15.726 15.9779L15.8026 15.9734ZM18.2208 19.4841L6.89873 19.4839L6.82215 19.4884C6.4956 19.5264 6.24212 19.8046 6.24212 20.1422C6.24212 20.5057 6.5361 20.8004 6.89873 20.8004H18.2334L18.342 20.802C19.0962 20.8392 19.7125 21.4111 19.7976 22.1627C19.8867 22.9501 19.3636 23.6762 18.5899 23.839C17.8162 24.0017 17.0461 23.5476 16.8119 22.7907L16.785 22.7187C16.6521 22.4173 16.3119 22.257 15.9903 22.357C15.6439 22.4647 15.4502 22.8334 15.5576 23.1806C15.9925 24.5863 17.4228 25.4296 18.8596 25.1273C20.2964 24.8251 21.2679 23.4766 21.1024 22.0143C20.9369 20.5519 19.6887 19.4559 18.2208 19.4841Z" fill="#04AEEF"/>
</svg>
